<svg width="160" height="111" viewBox="0 0 160 111" fill="none" xmlns="http://www.w3.org/2000/svg">
<path d="M0.00195312 29.1175C0.00195312 29.1175 47.3968 22.9806 48.7339 22.7631C50.7864 22.4279 52.6065 22.0353 54.3058 21.5672C58.1392 20.5162 61.6677 18.9125 64.7917 16.7984C67.789 14.79 70.575 11.8666 73.3368 8.65922C75.0905 6.61761 76.9348 3.95693 78.6553 1.38982V0.148438C76.6148 3.17159 74.6046 5.77796 72.537 8.07628C69.7963 11.1296 66.9227 13.6244 63.9919 15.4968C60.9675 17.4478 57.5657 18.9005 53.8742 19.8216C52.2202 20.2384 50.4514 20.5766 48.4593 20.8545C47.1493 21.0386 45.797 21.1807 44.49 21.3166C43.9678 21.3741 0.00195312 26.04 0.00195312 26.04V29.1175Z" fill="#BDBCBC"/>
<path d="M63.5583 21.166C60.5912 22.8723 57.1653 24.1227 53.3742 24.8777C51.7563 25.2069 49.9906 25.4727 47.9804 25.6901C46.7972 25.8199 45.6079 25.9225 44.4156 26.0253C43.7727 26.0797 43.1298 26.1369 42.4869 26.1944C27.9624 27.4991 13.5134 28.8854 0 30.1961V33.2736C13.619 31.6307 28.1707 29.8881 42.6891 28.2451C43.3351 28.1697 43.981 28.0972 44.6269 28.0276C45.8162 27.8976 47.0084 27.765 48.2007 27.6079C50.2683 27.3331 52.0763 27.0159 53.7274 26.6414C57.6664 25.7595 61.2221 24.3703 64.2978 22.5069C67.3524 20.6737 70.0509 18.1035 72.9546 14.9626C74.7626 13.0086 76.7728 10.2482 78.6563 7.65694V6.52734C76.4378 9.53539 74.3339 12.0633 72.2543 14.2197C69.42 17.1582 66.4952 19.4928 63.5583 21.166Z" fill="#BDBCBC"/>
<path d="M71.8529 20.4134C68.9613 23.0681 65.9428 25.155 62.8792 26.6167C59.882 28.0634 56.5315 29.0782 52.6287 29.7184C51.0199 29.9872 49.2692 30.2047 47.2801 30.3859L0 34.2697V37.3382L42.028 32.8775L47.4643 32.3066C49.5138 32.0682 51.3005 31.8023 52.9244 31.4942C56.966 30.7301 60.4342 29.5915 63.522 28.009C66.6794 26.4113 69.8335 23.7537 72.7673 20.939C74.7354 19.0514 76.631 16.6141 78.6562 14.059V13.0352C76.3169 15.9466 74.0835 18.3688 71.8529 20.4134Z" fill="#BDBCBC"/>
<path d="M60.4212 36.3517C57.6684 37.892 55.6098 38.78 51.6799 39.1908C49.3044 39.4475 46.8626 39.5682 44.4992 39.686C43.3582 39.7432 42.2142 39.8008 41.0702 39.8733C33.9287 40.281 26.9139 40.734 19.7573 41.1991L0.00195312 42.5309V45.5994L19.9566 43.7692C26.4039 43.1893 33.8955 42.5219 41.2091 41.9239L46.5275 41.5132C48.6042 41.3533 50.3065 41.184 51.8821 40.9787C55.9268 40.4562 59.3828 39.6377 62.4435 38.481C65.7396 37.2488 68.8485 35.3341 71.9605 33.0811C74.7676 31.0515 78.6523 27.0498 78.6553 26.9985V25.9141C76.1168 28.3906 74.6559 29.783 71.876 31.6163C68.5527 33.8059 62.8902 34.9715 60.4212 36.3517Z" fill="#BDBCBC"/>
<path d="M61.4263 42.1845C58.4441 43.0603 55.0876 43.6523 51.1637 43.9936C49.573 44.1325 47.8586 44.2382 45.9208 44.3167L40.6326 44.5491C27.4935 45.1592 14.4148 45.8417 0.00195312 46.6058V49.6653C13.7719 48.5992 27.2641 47.5633 40.7533 46.6029L46.0234 46.2435C48.0608 46.1075 49.7481 45.9626 51.3358 45.7844C55.3563 45.3344 58.7973 44.6397 61.8519 43.6612C65.2355 42.5891 68.5346 41.0338 71.6556 39.0405C73.9587 37.5727 76.2647 35.8211 78.6553 33.7342V33.6797C76.0202 35.9297 73.5089 36.431 71.0066 37.9411C67.94 39.8015 64.7163 41.2271 61.4263 42.1845Z" fill="#BDBCBC"/>
<path d="M60.9383 47.2705C57.935 47.9742 54.6782 48.4241 50.6909 48.6929C49.1545 48.7956 47.5004 48.8712 45.4872 48.9345L40.2502 49.1218C27.0538 49.6201 13.6733 50.1939 0 50.7889V53.8482C13.5858 52.9211 26.912 52.0181 40.3529 51.1785L45.5777 50.8644C47.6272 50.7465 49.2964 50.6288 50.8327 50.4869C54.8925 50.1124 58.2157 49.5657 61.2884 48.7714C64.7354 47.8835 68.0858 46.5788 71.2461 44.8996C73.691 43.604 76.1299 42.0456 78.6563 40.1671V38.8594C75.9246 40.8315 73.3047 42.4412 70.6847 43.7519C67.5788 45.3073 64.3008 46.4913 60.9383 47.2705Z" fill="#BDBCBC"/>
<path d="M60.4906 52.2552C57.4752 52.8079 54.2304 53.1612 50.2733 53.3636C48.7853 53.4421 47.1916 53.4965 45.1089 53.5448L0.00195312 54.765V57.8243L39.9987 55.7344L45.1813 55.4716C47.2037 55.375 48.8577 55.2784 50.3881 55.1606C54.3995 54.8526 57.6986 54.4117 60.7713 53.7684C64.2606 53.0436 67.6472 51.9864 70.8347 50.6273C73.4033 49.5371 75.9749 48.2082 78.6553 46.5925V45.3633C75.7938 47.0304 73.0713 48.3653 70.3668 49.4374C67.2246 50.6877 63.9014 51.6361 60.4906 52.2552Z" fill="#BDBCBC"/>
<path d="M60.1374 57.2639C54.6017 58.0039 48.906 58.0884 43.3944 58.17C42.1327 58.1869 40.868 58.2062 39.6063 58.2335L0.00195312 58.9462V61.9996L39.6757 60.2903C40.9314 60.233 42.193 60.1815 43.4547 60.1332C49.0025 59.9097 54.7405 59.6801 60.3517 58.7892C63.9013 58.2305 67.3182 57.4 70.5086 56.3278C73.1497 55.4429 75.8844 54.2982 78.6553 52.9452V51.7734C75.7425 53.1295 72.8781 54.2591 70.1283 55.1047C66.9771 56.0772 63.6176 56.805 60.1374 57.2641" fill="#BDBCBC"/>
<path d="M59.8215 62.3026C54.6359 62.7315 49.3296 62.7315 44.1953 62.7315C42.5986 62.7315 41.0019 62.7315 39.4051 62.7435C26.2842 62.801 13.2689 62.9097 0 63.0243V66.0778C12.638 65.6489 26.0427 65.2019 39.4504 64.8032C41.0411 64.7489 42.6318 64.7097 44.2255 64.6674C49.387 64.5377 54.7235 64.4046 59.9634 63.8369C63.6217 63.4442 66.954 62.8675 70.1444 62.0792C72.9274 61.3936 75.7858 60.4816 78.6563 59.3853V58.2617C75.6922 59.3248 72.7403 60.1946 69.8637 60.8288C66.7035 61.5265 63.4195 62.0066 59.8215 62.3026Z" fill="#BDBCBC"/>
<path d="M59.6212 67.2705C57.4601 67.355 55.1208 67.3973 52.4676 67.3973C51.4655 67.3973 50.4604 67.3925 49.4613 67.3828L39.2531 67.2591C32.2896 67.2076 25.3504 67.1956 18.8397 67.1898L0.00195312 67.2066V70.257L18.885 69.7647C25.3715 69.6048 32.3289 69.4386 39.2742 69.3148L49.4734 69.1786C52.2714 69.1363 55.9629 69.0518 59.7027 68.8072C63.367 68.5687 66.7023 68.2032 69.8988 67.6928C72.7753 67.2337 75.7153 66.6146 78.6552 65.8626V64.7812C75.6338 65.476 72.6305 66.0348 69.7178 66.4244C66.5394 66.8503 63.2373 67.125 59.6212 67.27" fill="#BDBCBC"/>
<path d="M49.3436 72.0725L39.1717 71.9638C26.1926 71.7795 13.2286 71.544 0.00195312 71.2964V74.3497C12.6249 74.2683 25.9964 74.1714 39.1807 74.0235L49.3587 73.8725C52.7876 73.8121 56.1471 73.7489 59.5428 73.637C66.5364 73.4135 72.8026 72.9211 78.6553 72.1449V71.082C72.7785 71.7162 66.5063 72.0483 59.5066 72.0936C56.123 72.1238 52.7333 72.1009 49.3436 72.0719" fill="#BDBCBC"/>
<path d="M78.6552 77.469L0.00195312 75.4727V78.5261H78.6552V77.469Z" fill="#BDBCBC"/>
<path d="M71.5741 26.1804C68.5859 28.5814 66.2798 30.2879 62.6215 31.7405C59.4371 33.009 56.0173 33.5253 52.1085 34.0599C49.5942 34.4133 46.9651 34.9328 44.4538 35.1019C43.4215 35.1713 42.3893 35.2376 41.36 35.3193L0.00195312 38.3365V41.3989L41.526 37.37L46.9109 36.8656C48.906 36.6752 50.6808 36.458 52.3289 36.1892C56.3524 35.5429 59.8205 34.5582 62.9294 33.172C66.1531 31.7495 69.4159 29.418 72.4494 26.866C74.511 25.1325 76.4971 22.9519 78.6553 20.569V19.4727C76.0444 22.1727 73.8772 24.3321 71.5741 26.1804Z" fill="#BDBCBC"/>
<path d="M32.6934 107.798H101.591V77.1406H32.6934V107.798Z" fill="white"/>
<path d="M101.603 32.4023H32.6934V78.5258H101.603V32.4023Z" fill="#254AA5"/>
<path d="M67.8966 38.9605H70.2932L68.3615 40.4675L69.113 42.8565L67.1873 41.3856L65.2616 42.8565L66.0222 40.4675L64.0723 38.9605H66.4629L67.1873 36.6289L67.8966 38.9605Z" fill="#FFF200"/>
<path d="M67.9806 69.7177H70.3833L68.4485 71.1703L69.2001 73.4656L67.2743 72.0523L65.3516 73.4656L66.1092 71.1703L64.1562 69.7177H66.5499L67.2743 67.4766L67.9806 69.7177Z" fill="#FFF200"/>
<path d="M75.5841 67.6815H77.9868L76.0519 69.1311L76.8035 71.4294L74.8778 70.01L72.9551 71.4294L73.7127 69.1311L71.7598 67.6815H74.1534L74.8778 65.4375L75.5841 67.6815Z" fill="#FFF200"/>
<path d="M75.5841 41.0104H77.9868L76.0519 42.46L76.8035 44.7585L74.8778 43.3419L72.9551 44.7585L73.7127 42.46L71.7598 41.0104H74.1534L74.8778 38.7695L75.5841 41.0104Z" fill="#FFF200"/>
<path d="M81.2305 46.662H83.627L81.6954 48.1085L82.4469 50.4099L80.5211 48.9935L78.6014 50.4099L79.3591 48.1085L77.4062 46.662H79.7967L80.5211 44.418L81.2305 46.662Z" fill="#FFF200"/>
<path d="M81.2305 62.1111H83.627L81.6954 63.5638L82.4469 65.8651L80.5211 64.4456L78.6014 65.8651L79.3591 63.5638L77.4062 62.1111H79.7967L80.5211 59.8672L81.2305 62.1111Z" fill="#FFF200"/>
<path d="M83.3457 54.2683H85.7484L83.8136 55.7179L84.5652 58.0193L82.6394 56.5998L80.7167 58.0193L81.4744 55.7179L79.5215 54.2683H81.912L82.6394 52.0273L83.3457 54.2683Z" fill="#FFF200"/>
<path d="M60.1427 41.0301H62.5392L60.6075 42.4828L61.3591 44.781L59.4334 43.3615L57.5076 44.781L58.2682 42.4828L56.3184 41.0301H58.7089L59.4334 38.7891L60.1427 41.0301Z" fill="#FFF200"/>
<path d="M54.6544 46.6785H57.057L55.1223 48.1281L55.8708 50.4295L53.9481 49.01L52.0254 50.4295L52.78 48.1281L50.8301 46.6785H53.2237L53.9481 44.4375L54.6544 46.6785Z" fill="#FFF200"/>
<path d="M52.6162 54.2878H55.0159L53.0841 55.7374L53.8326 58.0388L51.9099 56.6224L49.9842 58.0388L50.7418 55.7374L48.7949 54.2878H51.1855L51.9099 52.0469L52.6162 54.2878Z" fill="#FFF200"/>
<path d="M54.6544 62.1284H57.057L55.1223 63.5811L55.8708 65.8825L53.9481 64.463L52.0254 65.8825L52.78 63.5811L50.8301 62.1284H53.2237L53.9481 59.8906L54.6544 62.1284Z" fill="#FFF200"/>
<path d="M60.2227 67.701H62.6194L60.6876 69.1506L61.4331 71.4489L59.5134 70.0325L57.5877 71.4489L58.3483 69.1506L56.3984 67.701H58.789L59.5134 65.457L60.2227 67.701Z" fill="#FFF200"/>
<path d="M32.6934 110.826H101.609V106.891H32.6934V110.826Z" fill="#254AA5"/>
<path d="M111.41 0C111.41 0 125.778 22.3882 128.407 26.5046C131.033 30.618 134.036 33.8738 144.667 36.0845C155.298 38.2952 159.925 39.3401 159.925 39.3401V40.1375C159.925 40.1375 153.17 38.7241 144.477 36.8214C135.787 34.9187 132.234 34.2754 128.271 28.8694C124.972 24.3694 111.41 5.24291 111.41 5.24291V0Z" fill="#BDBCBC"/>
<path d="M111.41 6.36719C111.41 6.36719 126.258 27.6502 128.229 30.2596C130.2 32.869 132.853 37.0729 144.589 39.5555C147.619 40.1957 159.964 42.6269 159.964 42.6269V43.3004C159.964 43.3004 150.583 41.4914 144.589 40.229C138.591 38.9665 132.292 37.8159 128.271 32.742C124.619 28.1333 111.383 11.136 111.383 11.136L111.41 6.36719Z" fill="#BDBCBC"/>
<path d="M111.41 12.7617C111.41 12.7617 125.401 30.8491 128.229 34.4672C131.054 38.0823 134.951 41.0693 144.589 42.9206C150.145 43.9898 159.922 45.7806 159.922 45.7806V46.4541C159.922 46.4541 151.356 44.8566 144.589 43.6365C137.821 42.4163 132.234 41.2354 128.229 36.7384C124.715 32.7911 111.383 17.2767 111.383 17.2767L111.41 12.7617Z" fill="#BDBCBC"/>
<path d="M111.384 19.0391C111.384 19.0391 125.549 35.4475 128.271 38.374C132.512 42.9314 134.568 44.5019 144.589 46.4076C148.597 47.1717 159.922 49.1438 159.922 49.1438V49.8565C159.922 49.8565 150.544 48.1744 144.589 47.1234C138.637 46.0724 133.599 45.6797 128.229 40.5183C124.139 36.5891 111.411 23.2733 111.411 23.2733L111.383 19.0391H111.384Z" fill="#BDBCBC"/>
<path d="M111.41 25.5742C111.41 25.5742 124.489 39.0168 128.271 42.8765C132.283 46.9688 137.423 48.485 144.546 49.7323C151.347 50.9222 159.922 52.2994 159.922 52.2994V53.0544C159.922 53.0544 151.869 51.7618 144.546 50.5326C137.365 49.3245 132.34 48.6541 128.229 44.9364C124.546 41.6082 111.41 29.5276 111.41 29.5276V25.5742Z" fill="#BDBCBC"/>
<path d="M111.41 31.6328C111.41 31.6328 123.849 42.9614 128.271 46.8332C132.34 50.3939 135.639 51.5023 144.589 53.0576C153.541 54.613 159.922 55.5795 159.922 55.5795V56.3798C159.922 56.3798 151.827 55.0751 144.546 53.9395C137.266 52.8039 132.627 52.3569 128.271 48.8929C123.245 44.8942 111.41 35.3354 111.41 35.3354V31.6328Z" fill="#BDBCBC"/>
<path d="M111.383 38.1094C111.383 38.1094 125.572 49.1449 128.229 51.0778C130.885 53.0137 134.395 55.2697 144.588 56.7164C154.697 58.1479 159.879 58.8607 159.879 58.8607V59.7033C159.879 59.7033 150.716 58.3956 144.588 57.6405C138.464 56.8825 133.767 56.5624 128.271 52.9714C122.919 49.4771 111.41 41.5311 111.41 41.5311L111.383 38.1094Z" fill="#BDBCBC"/>
<path d="M111.383 44.3047C111.383 44.3047 125.615 53.6006 128.313 55.0744C131.015 56.5452 134.184 58.9432 144.588 60.2479C154.996 61.5496 159.879 62.1386 159.879 62.1386V62.9389C159.879 62.9389 151.271 62.0148 144.546 61.299C137.821 60.5833 133.239 59.6167 128.229 56.9228C123.218 54.2318 111.41 47.4728 111.41 47.4728L111.383 44.3047Z" fill="#BDBCBC"/>
<path d="M111.41 50.5039C111.41 50.5039 124.006 57.2236 128.271 59.3226C133.025 61.6632 137.136 62.7866 144.589 63.6534C151.905 64.5111 159.922 65.3387 159.922 65.3387V66.0968C159.922 66.0968 152.509 65.3176 144.589 64.5807C136.738 63.8528 133.94 63.5145 128.271 61.0471C123.2 58.8424 111.383 53.4485 111.383 53.4485L111.41 50.5039Z" fill="#BDBCBC"/>
<path d="M111.41 56.8125C111.41 56.8125 121.32 60.9742 128.313 63.6954C135.195 66.3742 140.45 66.6007 144.631 67.0628C146.472 67.2652 159.88 68.6183 159.88 68.6183V69.3733C159.88 69.3733 151.869 68.7451 144.589 68.1139C137.308 67.4827 134.166 67.2169 128.271 65.2961C122.304 63.3542 111.383 59.6182 111.383 59.6182L111.41 56.8125Z" fill="#BDBCBC"/>
<path d="M111.41 63.207C111.41 63.207 121.462 66.2633 128.313 68.0301C135.165 69.7969 141.461 70.5127 144.631 70.7211C147.8 70.9325 159.88 71.8989 159.88 71.8989V72.6147C159.88 72.6147 153.028 72.1557 144.589 71.5637C137.764 71.0865 132.283 70.5821 128.271 69.7123C123.825 68.7488 111.383 65.8436 111.383 65.8436L111.41 63.207Z" fill="#BDBCBC"/>
<path d="M111.383 69.5195C111.383 69.5195 119.629 70.9118 128.313 72.3222C134.823 73.3823 143.646 74.0498 144.588 74.0891C145.53 74.1313 159.921 75.1007 159.921 75.1007V75.8557C159.921 75.8557 150.712 75.3907 144.588 75.0585C138.21 74.7112 131.871 74.3336 128.27 73.9652C120.205 73.1377 111.383 72.0444 111.383 72.0444V69.5195Z" fill="#BDBCBC"/>
<path d="M111.41 76.0508C111.41 76.0508 124.374 76.5279 128.313 76.6125C132.252 76.6971 159.922 77.7903 159.922 77.7903V78.5485L111.41 78.5182V76.0508Z" fill="#BDBCBC"/>
<path d="M36.7227 83.069C36.7227 82.9269 36.7891 82.8516 36.9401 82.8516H40.9394C41.0693 82.8516 41.1478 82.9271 41.1478 83.057V83.7335C41.1478 83.8635 41.0935 83.9299 40.9305 83.9299H37.9634V85.7993H40.5924C40.7342 85.7993 40.8097 85.8659 40.8097 85.9956V86.6691C40.8097 86.7991 40.7554 86.8652 40.5924 86.8652H37.9634V89.0065H41.006C41.1356 89.0065 41.2023 89.0729 41.2023 89.215V89.8764C41.2023 90.0184 41.1479 90.0727 40.9939 90.0727H36.9402C36.7893 90.0727 36.7229 90.0061 36.7229 89.8764V83.069H36.7227Z" fill="#5A5758"/>
<path d="M46.2413 90.0738H45.4686C45.3056 90.0738 45.2633 89.9984 45.2633 89.8684V89.5301L45.2416 89.518C44.816 89.814 44.0765 90.1704 43.4155 90.1704C41.9485 90.1704 41.8066 89.3006 41.8066 88.159V84.9607C41.8066 84.831 41.861 84.7461 42.0119 84.7461H42.8057C42.9477 84.7461 43.002 84.8215 43.002 84.9607V88.0171C43.002 88.6725 43.1318 89.0832 43.7959 89.0832C44.2638 89.0832 44.9791 88.7358 45.2628 88.5939V84.9607C45.2628 84.831 45.3051 84.7461 45.468 84.7461H46.2408C46.3917 84.7461 46.4461 84.8215 46.4461 84.9607V89.8684C46.4461 90.0073 46.3917 90.0738 46.2408 90.0738" fill="#5A5758"/>
<path d="M48.5663 89.8709C48.5663 90.0009 48.512 90.0762 48.3611 90.0762H47.5763C47.4254 90.0762 47.3711 90.0127 47.3711 89.8709V84.9662C47.3711 84.8241 47.4254 84.7488 47.5763 84.7488H48.349C48.512 84.7488 48.5663 84.8362 48.5663 84.9662V85.4434L48.5881 85.4652C48.9141 85.1632 49.6868 84.7916 50.1969 84.695C50.3389 84.6616 50.4352 84.695 50.4595 84.8791L50.5348 85.6069C50.5444 85.761 50.5566 85.8244 50.3267 85.8697C49.72 85.9876 48.9472 86.2049 48.5669 86.368V89.8714L48.5663 89.8709Z" fill="#5A5758"/>
<path d="M53.1409 85.6817C52.2173 85.6817 52.009 86.2706 52.009 87.4001C52.009 88.5538 52.2172 89.1185 53.1288 89.1185C54.1189 89.1185 54.3151 88.5629 54.3151 87.4001C54.3151 86.2464 54.1308 85.6817 53.1409 85.6817ZM53.1288 90.1636C50.9465 90.1636 50.8047 88.5629 50.8047 87.3246C50.8047 86.3008 51.0309 84.6367 53.1288 84.6367C55.2387 84.6367 55.5315 86.041 55.5315 87.3246C55.5315 88.5629 55.3806 90.1636 53.1288 90.1636Z" fill="#5A5758"/>
<path d="M58.7797 85.7467C58.333 85.7467 57.6478 86.0608 57.3218 86.236V88.9541C57.8107 89.0962 58.2032 89.1384 58.5744 89.1384C59.3562 89.1384 59.6279 88.7367 59.6279 87.3685C59.6279 85.9853 59.3562 85.7468 58.7797 85.7468V85.7467ZM58.6923 90.1743C58.3331 90.1743 57.8351 90.1079 57.334 89.9327L57.3219 89.9448V91.8595C57.3219 91.9772 57.2917 92.077 57.1167 92.077H56.344C56.172 92.077 56.1387 92.0016 56.1387 91.8595V84.9645C56.1387 84.8227 56.193 84.7472 56.344 84.7472H57.1167C57.2707 84.7472 57.313 84.8316 57.313 84.9645V85.2907L57.3463 85.3126C57.7357 85.0407 58.4329 84.6602 59.0638 84.6602C60.4854 84.6602 60.8567 85.7353 60.8567 87.3783C60.8567 89.1511 60.41 90.1748 58.6925 90.1748" fill="#5A5758"/>
<path d="M62.7345 86.9198H64.8866C64.8866 86.2554 64.7115 85.6151 63.812 85.6151C63.0061 85.6151 62.7888 86.1043 62.7345 86.9198ZM62.7224 87.7353C62.7557 88.8346 63.148 89.1396 64.0384 89.1396C64.4308 89.1396 65.0375 89.0611 65.451 89.0188C65.6474 88.9971 65.7136 88.9971 65.7468 89.2032L65.8104 89.5625C65.8437 89.7256 65.8224 89.8132 65.6264 89.9008C65.2008 90.0639 64.4099 90.1726 63.8757 90.1726C61.799 90.1726 61.4941 88.8467 61.4941 87.4303C61.4941 86.3763 61.6905 84.6367 63.8123 84.6367C65.7561 84.6367 66.1032 85.8991 66.1364 87.0709C66.1485 87.4635 66.0399 87.7354 65.6052 87.7354H62.7226L62.7224 87.7353Z" fill="#5A5758"/>
<path d="M69.9836 87.6514H68.6585C68.1152 87.6514 67.765 87.8479 67.765 88.5666C67.765 89.0438 67.928 89.1978 68.4412 89.1978C68.909 89.1978 69.5701 88.9229 69.9836 88.6843V87.6514ZM70.05 89.4574C69.5067 89.8712 68.7763 90.1643 68.0488 90.1643C66.8958 90.1643 66.5607 89.5329 66.5607 88.6209C66.5486 87.3464 67.2338 86.8027 68.6042 86.8027H69.9957V86.522C69.9957 85.8696 69.7542 85.64 68.8638 85.64C68.5046 85.64 67.8194 85.6944 67.3847 85.7367C67.1674 85.77 67.1131 85.7584 67.0829 85.6069L66.9834 85.2052C66.9617 85.0632 66.9955 84.9757 67.2339 84.879C67.7018 84.7159 68.559 84.6406 69.0722 84.6406C70.9526 84.6406 71.179 85.4108 71.179 86.6309V88.7298C71.179 89.1738 71.2333 89.1859 71.5714 89.2281C71.7344 89.2402 71.7766 89.2733 71.7766 89.3912V89.8503C71.7766 89.9682 71.7013 90.0436 71.517 90.0767C71.342 90.11 71.1699 90.1311 71.0069 90.1311C70.4938 90.1311 70.1799 89.9801 70.0713 89.4697L70.0495 89.4576L70.05 89.4574Z" fill="#5A5758"/>
<path d="M76.5143 90.0751H75.7325C75.5905 90.0751 75.5242 90.0086 75.5242 89.8696L75.5362 86.8132C75.5362 86.1699 75.3853 85.7472 74.7545 85.7472C74.3198 85.7472 73.5591 86.0945 73.2633 86.2365V89.8696C73.2633 89.9996 73.209 90.0751 73.0581 90.0751H72.2854C72.1344 90.0751 72.0801 90.0086 72.0801 89.8696V84.9619C72.0801 84.823 72.1344 84.7474 72.2854 84.7474H73.0581C73.209 84.7474 73.2633 84.8228 73.2633 84.9619V85.2911C73.2754 85.2911 73.2875 85.3008 73.2967 85.3008C73.6981 85.0199 74.4587 84.6484 75.1228 84.6484C76.5897 84.6484 76.7225 85.618 76.7225 86.7143V89.8702C76.7225 90.0002 76.6771 90.0756 76.5141 90.0756" fill="#5A5758"/>
<path d="M39.559 94.2539C40.0902 94.2539 40.9716 94.3293 41.5482 94.568C41.7232 94.6465 41.7865 94.7341 41.7534 94.9062L41.6568 95.3533C41.6235 95.4833 41.5694 95.5375 41.3731 95.5162C40.8418 95.4498 40.1898 95.3745 39.6254 95.3745C38.1464 95.3745 37.9291 96.5704 37.9291 97.9838C37.9291 99.4093 38.2007 100.53 39.6254 100.53C40.2532 100.53 40.7875 100.463 41.3731 100.388C41.5815 100.366 41.6236 100.421 41.6689 100.563L41.7534 100.977C41.7985 101.149 41.7437 101.248 41.5692 101.324C41.0379 101.55 40.0902 101.65 39.5589 101.65C37.1352 101.65 36.625 99.8562 36.625 98.0049C36.625 96.1475 37.0808 94.2539 39.5589 94.2539" fill="#5A5758"/>
<path d="M44.221 97.1582C43.2974 97.1582 43.0891 97.7471 43.0891 98.8767C43.0891 100.03 43.2975 100.595 44.2089 100.595C45.1989 100.595 45.3951 100.039 45.3951 98.8767C45.3951 97.723 45.2109 97.1582 44.221 97.1582ZM44.2089 101.64C42.0266 101.64 41.8848 100.039 41.8848 98.8012C41.8848 97.7773 42.111 96.1133 44.2089 96.1133C46.3187 96.1133 46.6115 97.5176 46.6115 98.8012C46.6115 100.039 46.4606 101.64 44.2089 101.64Z" fill="#5A5758"/>
<path d="M54.8275 101.552H54.0458C53.892 101.552 53.8374 101.486 53.8374 101.347V98.2572C53.8374 97.4509 53.6442 97.2244 53.0979 97.2244C52.6965 97.2244 52.0445 97.5385 51.7094 97.7137C51.7094 97.8224 51.7191 98.0186 51.7191 98.2662V101.347C51.7191 101.477 51.6768 101.552 51.5138 101.552H50.72C50.5782 101.552 50.5357 101.486 50.5357 101.347V98.2028C50.5357 97.5384 50.3607 97.2244 49.8174 97.2244C49.4371 97.2244 48.8273 97.4962 48.4138 97.7137V101.347C48.4138 101.477 48.3595 101.552 48.2086 101.552H47.4268C47.2848 101.552 47.2305 101.486 47.2305 101.347V96.4391C47.2305 96.3002 47.2848 96.2246 47.4268 96.2246H48.1965C48.3595 96.2246 48.4138 96.3091 48.4138 96.4391V96.7562L48.4259 96.7683C48.8485 96.4723 49.4461 96.1462 50.0468 96.125C50.6746 96.125 51.1968 96.255 51.5348 96.8861C52.0782 96.4844 52.7513 96.125 53.4485 96.125C54.8823 96.125 55.0241 97.0613 55.0241 98.1486V101.347C55.0241 101.477 54.9787 101.552 54.8278 101.552" fill="#5A5758"/>
<path d="M63.347 101.552H62.5652C62.4114 101.552 62.3568 101.486 62.3568 101.347V98.2572C62.3568 97.4509 62.1637 97.2244 61.6174 97.2244C61.2159 97.2244 60.5639 97.5385 60.2289 97.7137C60.2289 97.8224 60.2385 98.0186 60.2385 98.2662V101.347C60.2385 101.477 60.1963 101.552 60.0333 101.552H59.2395C59.0977 101.552 59.0552 101.486 59.0552 101.347V98.2028C59.0552 97.5384 58.8802 97.2244 58.3368 97.2244C57.9565 97.2244 57.3468 97.4962 56.9333 97.7137V101.347C56.9333 101.477 56.8789 101.552 56.728 101.552H55.9463C55.8043 101.552 55.75 101.486 55.75 101.347V96.4391C55.75 96.3002 55.8043 96.2246 55.9463 96.2246H56.7159C56.8789 96.2246 56.9333 96.3091 56.9333 96.4391V96.7562L56.9453 96.7683C57.3679 96.4723 57.9656 96.1462 58.5662 96.125C59.1941 96.125 59.7162 96.255 60.0543 96.8861C60.5976 96.4844 61.2707 96.125 61.968 96.125C63.4017 96.125 63.5436 97.0613 63.5436 98.1486V101.347C63.5436 101.477 63.4982 101.552 63.3473 101.552" fill="#5A5758"/>
<path d="M65.6147 101.345C65.6147 101.463 65.5725 101.551 65.4184 101.551H64.6458C64.4948 101.551 64.4284 101.487 64.4284 101.345V96.4284C64.4284 96.2774 64.4948 96.2231 64.6458 96.2231H65.4184C65.5725 96.2231 65.6147 96.3105 65.6147 96.4284V101.345ZM65.0382 95.4408C64.4738 95.4408 64.3984 95.1238 64.3984 94.8097C64.3984 94.4623 64.5162 94.1875 65.0382 94.1875C65.5725 94.1875 65.6812 94.4382 65.6812 94.8097C65.6812 95.1449 65.5817 95.4408 65.0382 95.4408Z" fill="#5A5758"/>
<path d="M68.3102 101.637C67.7669 101.637 67.0394 101.561 66.6259 101.398C66.4086 101.311 66.3633 101.211 66.3965 101.039L66.4719 100.68C66.5052 100.504 66.5805 100.495 66.7556 100.516C67.2325 100.592 67.9297 100.647 68.298 100.647C68.9952 100.647 69.2789 100.462 69.2789 100.027C69.2789 99.5261 69.0918 99.4174 68.4067 99.3208C67.3412 99.1666 66.4084 98.9402 66.4084 97.7533C66.4084 96.6782 67.2325 96.1133 68.4519 96.1133C68.8956 96.1133 69.6472 96.1769 70.103 96.3518C70.2872 96.4272 70.3656 96.5149 70.3324 96.678L70.245 97.0676C70.2116 97.2217 70.1484 97.2427 69.9522 97.2217C69.4843 97.1673 68.8746 97.1009 68.4732 97.1009C67.779 97.1009 67.6159 97.2971 67.6159 97.711C67.6159 98.1338 67.8755 98.1882 68.5396 98.2969C69.5719 98.4508 70.5046 98.6563 70.5046 99.9519C70.5046 101.223 69.43 101.637 68.3102 101.637Z" fill="#5A5758"/>
<path d="M72.8629 101.637C72.3196 101.637 71.5921 101.561 71.1786 101.398C70.9613 101.311 70.916 101.211 70.9492 101.039L71.0246 100.68C71.0579 100.504 71.1333 100.495 71.3083 100.516C71.7852 100.592 72.4824 100.647 72.8507 100.647C73.5479 100.647 73.8317 100.462 73.8317 100.027C73.8317 99.5261 73.6446 99.4174 72.9594 99.3208C71.8939 99.1666 70.9612 98.9402 70.9612 97.7533C70.9612 96.6782 71.7852 96.1133 73.0046 96.1133C73.4483 96.1133 74.1999 96.1769 74.6557 96.3518C74.8399 96.4272 74.9183 96.5149 74.8851 96.678L74.7977 97.0676C74.7646 97.2217 74.7011 97.2427 74.5049 97.2217C74.0371 97.1673 73.4274 97.1009 73.0259 97.1009C72.3317 97.1009 72.1687 97.2971 72.1687 97.711C72.1687 98.1338 72.4283 98.1882 73.0923 98.2969C74.1246 98.4508 75.0573 98.6563 75.0573 99.9519C75.0573 101.223 73.9827 101.637 72.8629 101.637Z" fill="#5A5758"/>
<path d="M76.9703 101.345C76.9703 101.463 76.9281 101.551 76.774 101.551H76.0013C75.8504 101.551 75.784 101.487 75.784 101.345V96.4284C75.784 96.2774 75.8504 96.2231 76.0013 96.2231H76.774C76.9281 96.2231 76.9703 96.3105 76.9703 96.4284V101.345ZM76.3938 95.4408C75.8294 95.4408 75.7539 95.1238 75.7539 94.8097C75.7539 94.4623 75.8718 94.1875 76.3938 94.1875C76.9281 94.1875 77.0367 94.4382 77.0367 94.8097C77.0367 95.1449 76.9373 95.4408 76.3938 95.4408Z" fill="#5A5758"/>
<path d="M80.1116 97.1582C79.188 97.1582 78.9827 97.7471 78.9827 98.8767C78.9827 100.03 79.188 100.595 80.0995 100.595C81.0895 100.595 81.2857 100.039 81.2857 98.8767C81.2857 97.723 81.1015 97.1582 80.1116 97.1582ZM80.0995 101.64C77.9172 101.64 77.7754 100.039 77.7754 98.8012C77.7754 97.7773 78.0016 96.1133 80.0995 96.1133C82.2094 96.1133 82.5021 97.5176 82.5021 98.8012C82.5021 100.039 82.3512 101.64 80.0995 101.64Z" fill="#5A5758"/>
<path d="M87.522 101.552H86.7402C86.5983 101.552 86.5318 101.485 86.5318 101.346L86.5439 98.2898C86.5439 97.6465 86.393 97.2238 85.7621 97.2238C85.3275 97.2238 84.5669 97.5711 84.2711 97.7131V101.346C84.2711 101.476 84.2168 101.552 84.0658 101.552H83.2931C83.1422 101.552 83.0879 101.485 83.0879 101.346V96.4385C83.0879 96.2996 83.1422 96.224 83.2931 96.224H84.0658C84.2168 96.224 84.2711 96.2993 84.2711 96.4385V96.7677C84.2831 96.7677 84.2928 96.7774 84.3044 96.7774C84.7058 96.4965 85.4695 96.125 86.1305 96.125C87.5975 96.125 87.7303 97.0946 87.7303 98.1909V101.347C87.7303 101.477 87.6851 101.552 87.5219 101.552" fill="#5A5758"/>
</svg>
